<svg width="1512" height="213" viewBox="0 0 1512 213" fill="none" xmlns="http://www.w3.org/2000/svg">
<path fill-rule="evenodd" clip-rule="evenodd" d="M0 81.2938L41.58 103.245C84.42 125.196 167.58 169.098 252 183.732C336.42 198.366 419.58 183.732 504 161.781C588.42 139.83 671.58 110.562 756 73.9768C840.42 37.3918 923.58 -6.51029 1008 0.806722C1092.42 8.12373 1175.58 66.6598 1260 103.245C1344.42 139.83 1427.58 154.464 1470.42 161.781L1512 169.098V213H1470.42C1427.58 213 1344.42 213 1260 213C1175.58 213 1092.42 213 1008 213C923.58 213 840.42 213 756 213C671.58 213 588.42 213 504 213C419.58 213 336.42 213 252 213C167.58 213 84.42 213 41.58 213H0V81.2938Z" fill="#2B2B4A"/>
</svg>
