<?xml version="1.0" standalone="no"?>
<svg viewBox="0 0 200 200" xmlns="http://www.w3.org/2000/svg">
  <path fill="#8A3FFC" d="M43.2,-76.3C56.2,-67.2,67.3,-56.2,74.5,-43.2C81.6,-30.2,84.8,-15.1,84.9,0.1C85,15.2,82,30.4,75.5,44.5C68.9,58.5,58.8,71.4,45.6,80C32.4,88.7,16.2,93.1,0.1,93C-16.1,92.9,-32.2,88.3,-45.9,79.9C-59.5,71.6,-70.8,59.5,-77.7,45.5C-84.6,31.6,-87.2,15.8,-87.6,-0.2C-88,-16.3,-86.2,-32.5,-79.3,-46.3C-72.3,-60.2,-60.1,-71.6,-46,-80.1C-31.9,-88.6,-16,-94.2,-0.5,-93.4C15.1,-92.6,30.1,-85.4,43.2,-76.3Z" transform="translate(100 100)" />
</svg>
